<?xml version="1.0" encoding="UTF-8" standalone="no"?>
<svg
   width="754"
   height="768"
   viewBox="0 0 753.99999 768"
   version="1.1"
   id="svg44"
   xmlns="http://www.w3.org/2000/svg"
   xmlns:svg="http://www.w3.org/2000/svg">
  <defs
     id="defs44" />
  <path
     fill="none"
     stroke-width="4"
     stroke-linecap="butt"
     stroke-linejoin="miter"
     stroke="#000000"
     stroke-opacity="1"
     stroke-miterlimit="2"
     d="M 331.59375,357.90234 H 411.375"
     id="path2" />
  <path
     fill="none"
     stroke-width="4"
     stroke-linecap="butt"
     stroke-linejoin="miter"
     stroke="#000000"
     stroke-opacity="1"
     stroke-miterlimit="2"
     d="M 331.59375,357.90234 291.70312,288.73437"
     id="path3" />
  <path
     fill="none"
     stroke-width="4"
     stroke-linecap="butt"
     stroke-linejoin="miter"
     stroke="#000000"
     stroke-opacity="1"
     stroke-miterlimit="2"
     d="m 331.59375,357.90234 -39.89063,69.16797"
     id="path4" />
  <path
     fill="none"
     stroke-width="4"
     stroke-linecap="butt"
     stroke-linejoin="miter"
     stroke="#000000"
     stroke-opacity="1"
     stroke-miterlimit="2"
     d="m 411.375,357.90234 103.63281,59.90234"
     id="path5" />
  <path
     fill="none"
     stroke-width="4"
     stroke-linecap="butt"
     stroke-linejoin="miter"
     stroke="#000000"
     stroke-opacity="1"
     stroke-miterlimit="2"
     d="M 411.375,357.90234 515.00781,298"
     id="path6" />
  <path
     fill="none"
     stroke-width="4"
     stroke-linecap="butt"
     stroke-linejoin="miter"
     stroke="#000000"
     stroke-opacity="1"
     stroke-miterlimit="2"
     d="M 291.70312,288.73437 V 168.92968"
     id="path7" />
  <path
     fill="none"
     stroke-width="4"
     stroke-linecap="butt"
     stroke-linejoin="miter"
     stroke="#000000"
     stroke-opacity="1"
     stroke-miterlimit="2"
     d="M 291.70312,288.73437 188.07031,228.83203"
     id="path8" />
  <path
     fill="none"
     stroke-width="4"
     stroke-linecap="butt"
     stroke-linejoin="miter"
     stroke="#000000"
     stroke-opacity="1"
     stroke-miterlimit="2"
     d="M 291.70312,427.07031 188.07031,486.97265"
     id="path9" />
  <path
     fill="none"
     stroke-width="4"
     stroke-linecap="butt"
     stroke-linejoin="miter"
     stroke="#000000"
     stroke-opacity="1"
     stroke-miterlimit="2"
     d="M 291.70312,427.07031 V 546.875"
     id="path10" />
  <path
     fill="none"
     stroke-width="4"
     stroke-linecap="butt"
     stroke-linejoin="miter"
     stroke="#000000"
     stroke-opacity="1"
     stroke-miterlimit="2"
     d="m 515.00781,417.80468 97.76562,150.71485"
     id="path11" />
  <path
     fill="none"
     stroke-width="4"
     stroke-linecap="butt"
     stroke-linejoin="miter"
     stroke="#000000"
     stroke-opacity="1"
     stroke-miterlimit="2"
     d="m 515.00781,417.80468 179.25781,9.40625"
     id="path12" />
  <path
     fill="none"
     stroke-width="4"
     stroke-linecap="butt"
     stroke-linejoin="miter"
     stroke="#000000"
     stroke-opacity="1"
     stroke-miterlimit="2"
     d="m 515.00781,298 179.25781,-9.40625"
     id="path13" />
  <path
     fill="none"
     stroke-width="4"
     stroke-linecap="butt"
     stroke-linejoin="miter"
     stroke="#000000"
     stroke-opacity="1"
     stroke-miterlimit="2"
     d="M 515.00781,298 612.77343,147.28515"
     id="path14" />
  <path
     fill="none"
     stroke-width="4"
     stroke-linecap="butt"
     stroke-linejoin="miter"
     stroke="#000000"
     stroke-opacity="1"
     stroke-miterlimit="2"
     d="M 291.70312,168.92968 373.19922,8.8125"
     id="path15" />
  <path
     fill="none"
     stroke-width="4"
     stroke-linecap="butt"
     stroke-linejoin="miter"
     stroke="#000000"
     stroke-opacity="1"
     stroke-miterlimit="2"
     d="M 291.70312,168.92968 210.21093,8.8125"
     id="path16" />
  <path
     fill="none"
     stroke-width="4"
     stroke-linecap="butt"
     stroke-linejoin="miter"
     stroke="#000000"
     stroke-opacity="1"
     stroke-miterlimit="2"
     d="M 188.07031,228.83203 90.304682,78.117184"
     id="path17" />
  <path
     fill="none"
     stroke-width="4"
     stroke-linecap="butt"
     stroke-linejoin="miter"
     stroke="#000000"
     stroke-opacity="1"
     stroke-miterlimit="2"
     d="M 188.07031,228.83203 8.8125,219.42578"
     id="path18" />
  <path
     fill="none"
     stroke-width="4"
     stroke-linecap="butt"
     stroke-linejoin="miter"
     stroke="#000000"
     stroke-opacity="1"
     stroke-miterlimit="2"
     d="M 188.07031,486.97265 8.8125,496.3789"
     id="path19" />
  <path
     fill="none"
     stroke-width="4"
     stroke-linecap="butt"
     stroke-linejoin="miter"
     stroke="#000000"
     stroke-opacity="1"
     stroke-miterlimit="2"
     d="M 188.07031,486.97265 90.304682,637.6875"
     id="path20" />
  <path
     fill="none"
     stroke-width="4"
     stroke-linecap="butt"
     stroke-linejoin="miter"
     stroke="#000000"
     stroke-opacity="1"
     stroke-miterlimit="2"
     d="M 291.70312,546.875 210.21093,706.99218"
     id="path21" />
  <path
     fill="none"
     stroke-width="4"
     stroke-linecap="butt"
     stroke-linejoin="miter"
     stroke="#000000"
     stroke-opacity="1"
     stroke-miterlimit="2"
     d="m 291.70312,546.875 81.4961,160.11718"
     id="path22" />
  <path
     fill-rule="nonzero"
     fill="#ff0000"
     fill-opacity="1"
     d="m 340.40625,357.90234 c 0,-4.86719 -3.94532,-8.8125 -8.8125,-8.8125 -4.86719,0 -8.8125,3.94531 -8.8125,8.8125 0,4.86719 3.94531,8.8125 8.8125,8.8125 4.86718,0 8.8125,-3.94531 8.8125,-8.8125 z m 0,0"
     id="path23" />
  <path
     fill-rule="nonzero"
     fill="#ff0000"
     fill-opacity="1"
     d="m 420.1875,357.90234 c 0,-4.86719 -3.94532,-8.8125 -8.8125,-8.8125 -4.86719,0 -8.8125,3.94531 -8.8125,8.8125 0,4.86719 3.94531,8.8125 8.8125,8.8125 4.86718,0 8.8125,-3.94531 8.8125,-8.8125 z m 0,0"
     id="path24" />
  <path
     fill-rule="nonzero"
     fill="#ff0000"
     fill-opacity="1"
     d="m 300.51562,288.73437 c 0,-4.86719 -3.94531,-8.8125 -8.8125,-8.8125 -4.86719,0 -8.8125,3.94531 -8.8125,8.8125 0,4.86719 3.94531,8.8125 8.8125,8.8125 4.86719,0 8.8125,-3.94531 8.8125,-8.8125 z m 0,0"
     id="path25" />
  <path
     fill-rule="nonzero"
     fill="#ff0000"
     fill-opacity="1"
     d="m 300.51562,427.07031 c 0,-4.86719 -3.94531,-8.8125 -8.8125,-8.8125 -4.86719,0 -8.8125,3.94531 -8.8125,8.8125 0,4.86719 3.94531,8.8125 8.8125,8.8125 4.86719,0 8.8125,-3.94531 8.8125,-8.8125 z m 0,0"
     id="path26" />
  <path
     fill-rule="nonzero"
     fill="#ff0000"
     fill-opacity="1"
     d="m 523.82031,417.80468 c 0,-4.86718 -3.94531,-8.8125 -8.8125,-8.8125 -4.86719,0 -8.8125,3.94532 -8.8125,8.8125 0,4.86719 3.94531,8.8125 8.8125,8.8125 4.86719,0 8.8125,-3.94531 8.8125,-8.8125 z m 0,0"
     id="path27" />
  <path
     fill-rule="nonzero"
     fill="#ff0000"
     fill-opacity="1"
     d="m 523.82031,298 c 0,-4.86719 -3.94531,-8.8125 -8.8125,-8.8125 -4.86719,0 -8.8125,3.94531 -8.8125,8.8125 0,4.86718 3.94531,8.8125 8.8125,8.8125 4.86719,0 8.8125,-3.94532 8.8125,-8.8125 z m 0,0"
     id="path28" />
  <path
     fill-rule="nonzero"
     fill="#ff0000"
     fill-opacity="1"
     d="m 300.51562,168.92968 c 0,-4.86718 -3.94531,-8.8125 -8.8125,-8.8125 -4.86719,0 -8.8125,3.94532 -8.8125,8.8125 0,4.86719 3.94531,8.8125 8.8125,8.8125 4.86719,0 8.8125,-3.94531 8.8125,-8.8125 z m 0,0"
     id="path29" />
  <path
     fill-rule="nonzero"
     fill="#ff0000"
     fill-opacity="1"
     d="m 196.88281,228.83203 c 0,-4.86719 -3.94531,-8.8125 -8.8125,-8.8125 -4.86719,0 -8.8125,3.94531 -8.8125,8.8125 0,4.86718 3.94531,8.8125 8.8125,8.8125 4.86719,0 8.8125,-3.94532 8.8125,-8.8125 z m 0,0"
     id="path30" />
  <path
     fill-rule="nonzero"
     fill="#ff0000"
     fill-opacity="1"
     d="m 196.88281,486.97265 c 0,-4.86719 -3.94531,-8.8125 -8.8125,-8.8125 -4.86719,0 -8.8125,3.94531 -8.8125,8.8125 0,4.86719 3.94531,8.8125 8.8125,8.8125 4.86719,0 8.8125,-3.94531 8.8125,-8.8125 z m 0,0"
     id="path31" />
  <path
     fill-rule="nonzero"
     fill="#ff0000"
     fill-opacity="1"
     d="m 300.51562,546.875 c 0,-4.86719 -3.94531,-8.8125 -8.8125,-8.8125 -4.86719,0 -8.8125,3.94531 -8.8125,8.8125 0,4.86718 3.94531,8.8125 8.8125,8.8125 4.86719,0 8.8125,-3.94532 8.8125,-8.8125 z m 0,0"
     id="path32" />
  <path
     fill-rule="nonzero"
     fill="#ff0000"
     fill-opacity="1"
     d="m 621.58593,568.51953 c 0,-4.86719 -3.94531,-8.8125 -8.8125,-8.8125 -4.86718,0 -8.8125,3.94531 -8.8125,8.8125 0,4.86328 3.94532,8.8125 8.8125,8.8125 4.86719,0 8.8125,-3.94922 8.8125,-8.8125 z m 0,0"
     id="path33" />
  <path
     fill-rule="nonzero"
     fill="#ff0000"
     fill-opacity="1"
     d="m 703.07812,427.21093 c 0,-4.86718 -3.94531,-8.8125 -8.8125,-8.8125 -4.86719,0 -8.8125,3.94532 -8.8125,8.8125 0,4.86719 3.94531,8.8125 8.8125,8.8125 4.86719,0 8.8125,-3.94531 8.8125,-8.8125 z m 0,0"
     id="path34" />
  <path
     fill-rule="nonzero"
     fill="#ff0000"
     fill-opacity="1"
     d="m 703.07812,288.59375 c 0,-4.86719 -3.94531,-8.8125 -8.8125,-8.8125 -4.86719,0 -8.8125,3.94531 -8.8125,8.8125 0,4.86718 3.94531,8.8125 8.8125,8.8125 4.86719,0 8.8125,-3.94532 8.8125,-8.8125 z m 0,0"
     id="path35" />
  <path
     fill-rule="nonzero"
     fill="#ff0000"
     fill-opacity="1"
     d="m 621.58593,147.28515 c 0,-4.86719 -3.94531,-8.8125 -8.8125,-8.8125 -4.86718,0 -8.8125,3.94531 -8.8125,8.8125 0,4.86719 3.94532,8.8125 8.8125,8.8125 4.86719,0 8.8125,-3.94531 8.8125,-8.8125 z m 0,0"
     id="path36" />
  <path
     fill-rule="nonzero"
     fill="#ff0000"
     fill-opacity="1"
     d="M 382.01172,8.8125 C 382.01172,3.945313 378.0625,0 373.19922,0 c -4.86719,0 -8.8125,3.945313 -8.8125,8.8125 0,4.867188 3.94531,8.8125 8.8125,8.8125 4.86328,0 8.8125,-3.945312 8.8125,-8.8125 z m 0,0"
     id="path37" />
  <path
     fill-rule="nonzero"
     fill="#ff0000"
     fill-opacity="1"
     d="m 219.02343,8.8125 c 0,-4.867187 -3.94531,-8.8125 -8.8125,-8.8125 -4.86718,0 -8.8125,3.945313 -8.8125,8.8125 0,4.867188 3.94532,8.8125 8.8125,8.8125 4.86719,0 8.8125,-3.945312 8.8125,-8.8125 z m 0,0"
     id="path38" />
  <path
     fill-rule="nonzero"
     fill="#ff0000"
     fill-opacity="1"
     d="m 99.117182,78.117184 c 0,-4.86718 -3.94531,-8.8125 -8.8125,-8.8125 -4.86718,0 -8.8125,3.94532 -8.8125,8.8125 0,4.86719 3.94532,8.8125 8.8125,8.8125 4.86719,0 8.8125,-3.94531 8.8125,-8.8125 z m 0,0"
     id="path39" />
  <path
     fill-rule="nonzero"
     fill="#ff0000"
     fill-opacity="1"
     d="m 17.625,219.42578 c 0,-4.86719 -3.945313,-8.8125 -8.8125,-8.8125 -4.867188,0 -8.8125,3.94531 -8.8125,8.8125 0,4.86718 3.945312,8.8125 8.8125,8.8125 4.867187,0 8.8125,-3.94532 8.8125,-8.8125 z m 0,0"
     id="path40" />
  <path
     fill-rule="nonzero"
     fill="#ff0000"
     fill-opacity="1"
     d="m 17.625,496.3789 c 0,-4.86719 -3.945313,-8.8125 -8.8125,-8.8125 -4.867188,0 -8.8125,3.94531 -8.8125,8.8125 0,4.86719 3.945312,8.8125 8.8125,8.8125 4.867187,0 8.8125,-3.94531 8.8125,-8.8125 z m 0,0"
     id="path41" />
  <path
     fill-rule="nonzero"
     fill="#ff0000"
     fill-opacity="1"
     d="m 99.117182,637.6875 c 0,-4.86719 -3.94531,-8.8125 -8.8125,-8.8125 -4.86718,0 -8.8125,3.94531 -8.8125,8.8125 0,4.86718 3.94532,8.8125 8.8125,8.8125 4.86719,0 8.8125,-3.94532 8.8125,-8.8125 z m 0,0"
     id="path42" />
  <path
     fill-rule="nonzero"
     fill="#ff0000"
     fill-opacity="1"
     d="m 219.02343,706.99218 c 0,-4.86718 -3.94531,-8.8125 -8.8125,-8.8125 -4.86718,0 -8.8125,3.94532 -8.8125,8.8125 0,4.86719 3.94532,8.8125 8.8125,8.8125 4.86719,0 8.8125,-3.94531 8.8125,-8.8125 z m 0,0"
     id="path43" />
  <path
     fill-rule="nonzero"
     fill="#ff0000"
     fill-opacity="1"
     d="m 382.01172,706.99218 c 0,-4.86718 -3.94922,-8.8125 -8.8125,-8.8125 -4.86719,0 -8.8125,3.94532 -8.8125,8.8125 0,4.86719 3.94531,8.8125 8.8125,8.8125 4.86328,0 8.8125,-3.94531 8.8125,-8.8125 z m 0,0"
     id="path44" />
</svg>
